<?xml version="1.0" encoding="UTF-8" standalone="no"?>
<!-- Created with Inkscape (http://www.inkscape.org/) -->

<svg
   xmlns:dc="http://purl.org/dc/elements/1.1/"
   xmlns:cc="http://creativecommons.org/ns#"
   xmlns:rdf="http://www.w3.org/1999/02/22-rdf-syntax-ns#"
   xmlns:svg="http://www.w3.org/2000/svg"
   xmlns="http://www.w3.org/2000/svg"
   xmlns:sodipodi="http://sodipodi.sourceforge.net/DTD/sodipodi-0.dtd"
   xmlns:inkscape="http://www.inkscape.org/namespaces/inkscape"
   id="svg2"
   version="1.1"
   inkscape:version="0.91 r13725"
   width="950"
   height="541.25"
   viewBox="0 0 950 541.25"
   sodipodi:docname="street.svg">
  <g
     inkscape:groupmode="layer"
     id="layer2"
     inkscape:label="Street"
     style="display:inline">
    <path
       style="fill:none;fill-rule:evenodd;stroke:#000000;stroke-width:1px;stroke-linecap:butt;stroke-linejoin:miter;stroke-opacity:1"
       d="m 3,306.25 c 631,234 631,235 631,235"
       id="path4141"
       inkscape:connector-curvature="0"
       sodipodi:nodetypes="cc" />
    <path
       style="fill:none;fill-rule:evenodd;stroke:#000000;stroke-width:1px;stroke-linecap:butt;stroke-linejoin:miter;stroke-opacity:1"
       d="M 51,539.25 C 311.30462,421.33649 219.41592,392.68022 393,-0.75"
       id="path4143"
       inkscape:connector-curvature="0"
       sodipodi:nodetypes="cc" />
    <path
       style="fill:none;fill-rule:evenodd;stroke:#000000;stroke-width:1px;stroke-linecap:butt;stroke-linejoin:miter;stroke-opacity:1"
       d="M 949,197.25 442,-0.75"
       id="path4149"
       inkscape:path-effect="#path-effect4151"
       inkscape:original-d="M 949,197.25 442,-0.75"
       inkscape:connector-curvature="0" />
    <path
       style="fill:none;fill-rule:evenodd;stroke:#000000;stroke-width:1px;stroke-linecap:butt;stroke-linejoin:miter;stroke-opacity:1"
       d="m 619.5,68.75 c -6.42272,19.144427 -30.35064,20.612151 -60.0464,11.135319 -14.18284,-4.526181 -26.56657,5.705386 -43.69283,4.684054 C 498.73448,83.554003 468.85257,69.995258 451.59296,66.969695 438.44013,64.664038 430.5,77 430.5,77 L 258.01673,500.25948 C 235.66494,524.94874 212.67224,536.16983 200.5,541"
       id="path4153"
       inkscape:connector-curvature="0"
       sodipodi:nodetypes="csssccc" />
    <path
       style="fill:none;fill-rule:evenodd;stroke:#000000;stroke-width:1px;stroke-linecap:butt;stroke-linejoin:miter;stroke-opacity:1"
       d="m 365,238.25 362,142 -45,160"
       id="path4155"
       inkscape:connector-curvature="0" />
    <path
       style="fill:none;fill-rule:evenodd;stroke:#000000;stroke-width:1px;stroke-linecap:butt;stroke-linejoin:miter;stroke-opacity:1"
       d="m 423,94.25 c 44.12979,23.23648 81.05209,17.59258 131.16366,11.44831 116.02343,34.78949 81.12392,144.4292 5.65287,166.34787 C 548.92462,275.20946 544.18475,300.38813 544,309.25 l 0,0"
       id="path4157"
       inkscape:connector-curvature="0"
       sodipodi:nodetypes="ccscc" />
    <path
       style="fill:none;fill-rule:evenodd;stroke:#000000;stroke-width:1px;stroke-linecap:butt;stroke-linejoin:miter;stroke-opacity:1"
       d="m 543.5,308.75 -70,172.5 0,0"
       id="path4145"
       inkscape:connector-curvature="0" />
    <path
       style="fill:none;fill-rule:evenodd;stroke:#000000;stroke-width:1px;stroke-linecap:butt;stroke-linejoin:miter;stroke-opacity:1"
       d="m 531.5,340.75 c 20.07517,10.50617 42.16379,11.44143 56.69374,24.732 30.10955,27.54125 84.15863,38.8546 127.30626,54.768"
       id="path4147"
       inkscape:connector-curvature="0"
       sodipodi:nodetypes="csc" />
    <path
       style="fill:none;fill-rule:evenodd;stroke:#000000;stroke-width:1px;stroke-linecap:butt;stroke-linejoin:miter;stroke-opacity:1"
       d="m 758.5,153.25 -0.4402,1.00299 C 777.02575,165.56883 879.00525,244.88466 888.27873,263.2005 927.45869,384.86232 984.4584,504.30581 775,539.25 l 0,0"
       id="path4150"
       inkscape:connector-curvature="0"
       sodipodi:nodetypes="ccccc" />
    <path
       style="fill:none;fill-rule:evenodd;stroke:#000000;stroke-width:1px;stroke-linecap:butt;stroke-linejoin:miter;stroke-opacity:1"
       d="m 926,431.75 23.5,-2.5"
       id="path4152"
       inkscape:connector-curvature="0" />
    <path
       style="fill:none;fill-rule:evenodd;stroke:#000000;stroke-width:1px;stroke-linecap:butt;stroke-linejoin:miter;stroke-opacity:1"
       d="m 59.5,326.75 c -66.1071235,157.3465 7.482664,74.01304 18.5,8.5"
       id="path4154"
       inkscape:connector-curvature="0"
       sodipodi:nodetypes="cc" />
    <path
       style="fill:none;fill-rule:evenodd;stroke:#000000;stroke-width:1px;stroke-linecap:butt;stroke-linejoin:miter;stroke-opacity:1"
       d="m 37.5,319.75 -33.5,84 30.5,13.5 -0.5,0.5"
       id="path4156"
       inkscape:connector-curvature="0"
       sodipodi:nodetypes="cccc" />
    <path
       style="fill:none;fill-rule:evenodd;stroke:#000000;stroke-width:1px;stroke-linecap:butt;stroke-linejoin:miter;stroke-opacity:1"
       d="m 695.79307,368.00884 -10.6066,41.7193 0,0"
       id="path4158"
       inkscape:connector-curvature="0" />
    <path
       style="fill:none;fill-rule:evenodd;stroke:#000000;stroke-width:1px;stroke-linecap:butt;stroke-linejoin:miter;stroke-opacity:1"
       d="M 397.39401,158.70523 336.58283,134.6636"
       id="path4160"
       inkscape:connector-curvature="0" />
    <path
       style="fill:none;fill-rule:evenodd;stroke:#000000;stroke-width:1px;stroke-linecap:butt;stroke-linejoin:miter;stroke-opacity:1"
       d="m 554.37172,42.739719 c -18.94103,15.428459 -8.89068,6.229068 -27.83171,18.382963 -13.52986,8.681711 -54.68699,-30.746069 -94.63166,-19.31444 -38.25729,10.94872 -48.04833,93.312518 -74.26129,133.523818 -7.79773,11.9619 -29.86464,4.52725 -38.03479,7.4148 l 0,0"
       id="path4162"
       inkscape:connector-curvature="0"
       sodipodi:nodetypes="cssscc" />
    <path
       style="display:inline;opacity:0.63999999;fill:none;fill-rule:evenodd;stroke:#000000;stroke-width:1px;stroke-linecap:butt;stroke-linejoin:miter;stroke-opacity:1"
       d="M 830.5,0.24999971 775.5,129.25 c -4.31648,9.43258 -18.74451,31.84504 -27.68621,29.83505 -49.83815,-11.20304 -65.31241,-2.86005 -70.6288,12.59132 -11.70234,34.01129 31.86087,53.89324 60.28001,105.42402 15.38375,27.89444 -1.05219,77.27483 -10.965,102.64961 l 0,0.5"
       id="path4161"
       inkscape:connector-curvature="0"
       sodipodi:nodetypes="ccssscc" />
    <path
       style="display:inline;opacity:0.63999999;fill:none;fill-rule:evenodd;stroke:#000000;stroke-width:1px;stroke-linecap:butt;stroke-linejoin:miter;stroke-opacity:1"
       d="m 621.5,69.25 4,-69.00000029 0,0"
       id="path4159"
       inkscape:connector-curvature="0" />
  </g>
</svg>
